<svg xmlns="http://www.w3.org/2000/svg" xmlns:xlink="http://www.w3.org/1999/xlink" width="413" zoomAndPan="magnify" viewBox="0 0 309.75 103.5" height="138" preserveAspectRatio="xMidYMid meet" version="1.0"><defs><g/><clipPath id="63bd603823"><path d="M 0.621094 15.808594 L 71.964844 15.808594 L 71.964844 87.152344 L 0.621094 87.152344 Z M 0.621094 15.808594 " clip-rule="nonzero"/></clipPath><clipPath id="703b2a9bc7"><path d="M 36.292969 15.808594 C 16.589844 15.808594 0.621094 31.78125 0.621094 51.480469 C 0.621094 71.183594 16.589844 87.152344 36.292969 87.152344 C 55.992188 87.152344 71.964844 71.183594 71.964844 51.480469 C 71.964844 31.78125 55.992188 15.808594 36.292969 15.808594 Z M 36.292969 15.808594 " clip-rule="nonzero"/></clipPath><clipPath id="72cc64f5d9"><path d="M 25 27 L 60.136719 27 L 60.136719 81.554688 L 25 81.554688 Z M 25 27 " clip-rule="nonzero"/></clipPath><clipPath id="152a76773b"><path d="M 12.449219 31 L 47 31 L 47 76 L 12.449219 76 Z M 12.449219 31 " clip-rule="nonzero"/></clipPath></defs><g fill="#ffffff" fill-opacity="1"><g transform="translate(100.370143, 72.390428)"><g><path d="M 37.1875 -8.640625 L 39.34375 -1.53125 C 38.507812 -0.882812 37.441406 -0.375 36.140625 0 C 34.847656 0.375 33.523438 0.5625 32.171875 0.5625 C 29.722656 0.5625 27.578125 0.0664062 25.734375 -0.921875 C 23.890625 -1.921875 22.363281 -3.382812 21.15625 -5.3125 L 16.359375 -12.984375 C 15.796875 -13.878906 15.242188 -14.503906 14.703125 -14.859375 C 14.160156 -15.222656 13.53125 -15.425781 12.8125 -15.46875 L 12.8125 0 L 3.78125 0 L 3.78125 -40.078125 L 16.9375 -40.078125 C 22.46875 -40.078125 26.613281 -38.960938 29.375 -36.734375 C 32.144531 -34.515625 33.53125 -31.453125 33.53125 -27.546875 C 33.53125 -24.453125 32.578125 -21.925781 30.671875 -19.96875 C 28.773438 -18.019531 26.335938 -16.742188 23.359375 -16.140625 C 24.609375 -15.535156 25.703125 -14.539062 26.640625 -13.15625 L 28.5625 -10.21875 C 29.757812 -8.40625 31.335938 -7.5 33.296875 -7.5 C 34.015625 -7.5 34.691406 -7.582031 35.328125 -7.75 C 35.972656 -7.925781 36.59375 -8.222656 37.1875 -8.640625 Z M 16.421875 -32.5625 L 12.8125 -32.5625 L 12.8125 -22.625 L 16.359375 -22.625 C 19.179688 -22.625 21.210938 -23.03125 22.453125 -23.84375 C 23.703125 -24.65625 24.328125 -25.925781 24.328125 -27.65625 C 24.328125 -29.382812 23.628906 -30.632812 22.234375 -31.40625 C 20.835938 -32.175781 18.898438 -32.5625 16.421875 -32.5625 Z M 16.421875 -32.5625 "/></g></g></g><g fill="#ffffff" fill-opacity="1"><g transform="translate(135.812522, 72.390428)"><g><path d="M 17.5 0.5625 C 14.300781 0.5625 11.535156 -0.0234375 9.203125 -1.203125 C 6.867188 -2.390625 5.0625 -4.066406 3.78125 -6.234375 C 2.5 -8.398438 1.859375 -10.96875 1.859375 -13.9375 C 1.859375 -16.945312 2.503906 -19.597656 3.796875 -21.890625 C 5.097656 -24.191406 6.847656 -25.976562 9.046875 -27.25 C 11.253906 -28.53125 13.75 -29.171875 16.53125 -29.171875 C 19.695312 -29.171875 22.273438 -28.457031 24.265625 -27.03125 C 26.265625 -25.601562 27.648438 -23.582031 28.421875 -20.96875 C 29.191406 -18.351562 29.347656 -15.316406 28.890625 -11.859375 L 10.671875 -11.859375 C 10.890625 -10.421875 11.640625 -9.222656 12.921875 -8.265625 C 14.203125 -7.304688 15.953125 -6.828125 18.171875 -6.828125 C 19.191406 -6.828125 20.265625 -7.039062 21.390625 -7.46875 C 22.515625 -7.90625 23.472656 -8.554688 24.265625 -9.421875 L 29.0625 -4.34375 C 27.820312 -2.84375 26.289062 -1.648438 24.46875 -0.765625 C 22.644531 0.117188 20.320312 0.5625 17.5 0.5625 Z M 16.703125 -22.90625 C 15.203125 -22.90625 13.929688 -22.453125 12.890625 -21.546875 C 11.859375 -20.648438 11.175781 -19.394531 10.84375 -17.78125 L 21.609375 -17.78125 C 21.648438 -19.550781 21.226562 -20.847656 20.34375 -21.671875 C 19.457031 -22.492188 18.242188 -22.90625 16.703125 -22.90625 Z M 16.703125 -22.90625 "/></g></g></g><g fill="#ffffff" fill-opacity="1"><g transform="translate(165.11458, 72.390428)"><g/></g></g><g fill="#ffffff" fill-opacity="1"><g transform="translate(177.756389, 72.390428)"><g/></g></g><g fill="#ffffff" fill-opacity="1"><g transform="translate(190.398198, 72.390428)"><g/></g></g><g fill="#ffffff" fill-opacity="1"><g transform="translate(203.046489, 72.390428)"><g><path d="M 12.359375 0.5625 C 9.460938 0.5625 7.234375 -0.234375 5.671875 -1.828125 C 4.109375 -3.429688 3.328125 -5.753906 3.328125 -8.796875 L 3.328125 -41.765625 L 11.96875 -41.765625 L 11.96875 -9.421875 C 11.96875 -7.691406 12.773438 -6.828125 14.390625 -6.828125 C 15.253906 -6.828125 15.988281 -7.035156 16.59375 -7.453125 L 18.6875 -1.296875 C 18.039062 -0.773438 17.148438 -0.335938 16.015625 0.015625 C 14.890625 0.378906 13.671875 0.5625 12.359375 0.5625 Z M 12.359375 0.5625 "/></g></g></g><g fill="#ffffff" fill-opacity="1"><g transform="translate(218.905205, 72.390428)"><g><path d="M 11.96875 -28.734375 L 11.96875 0 L 3.328125 0 L 3.328125 -28.734375 Z M 7.609375 -32.109375 C 5.953125 -32.109375 4.632812 -32.613281 3.65625 -33.625 C 2.675781 -34.644531 2.1875 -35.851562 2.1875 -37.25 C 2.1875 -38.644531 2.664062 -39.847656 3.625 -40.859375 C 4.59375 -41.878906 5.921875 -42.390625 7.609375 -42.390625 C 9.265625 -42.390625 10.582031 -41.878906 11.5625 -40.859375 C 12.539062 -39.847656 13.03125 -38.644531 13.03125 -37.25 C 13.03125 -35.851562 12.539062 -34.644531 11.5625 -33.625 C 10.582031 -32.613281 9.265625 -32.109375 7.609375 -32.109375 Z M 7.609375 -32.109375 "/></g></g></g><g fill="#ffffff" fill-opacity="1"><g transform="translate(232.562873, 72.390428)"><g><path d="M 16.484375 0.5625 C 13.503906 0.5625 10.921875 -0.0078125 8.734375 -1.15625 C 6.554688 -2.300781 4.863281 -3.945312 3.65625 -6.09375 C 2.457031 -8.238281 1.859375 -10.796875 1.859375 -13.765625 C 1.859375 -16.816406 2.503906 -19.5 3.796875 -21.8125 C 5.097656 -24.125 6.894531 -25.925781 9.1875 -27.21875 C 11.488281 -28.519531 14.164062 -29.171875 17.21875 -29.171875 C 19.695312 -29.171875 21.894531 -28.679688 23.8125 -27.703125 C 25.726562 -26.734375 27.269531 -25.210938 28.4375 -23.140625 L 22.34375 -18.515625 C 21.75 -19.597656 21.046875 -20.382812 20.234375 -20.875 C 19.421875 -21.363281 18.414062 -21.609375 17.21875 -21.609375 C 15.375 -21.609375 13.847656 -20.898438 12.640625 -19.484375 C 11.441406 -18.078125 10.84375 -16.226562 10.84375 -13.9375 C 10.84375 -11.71875 11.375 -10.003906 12.4375 -8.796875 C 13.507812 -7.597656 15.0625 -7 17.09375 -7 C 18.1875 -7 19.191406 -7.25 20.109375 -7.75 C 21.035156 -8.257812 21.820312 -9.0625 22.46875 -10.15625 L 28.390625 -5.421875 C 27.109375 -3.234375 25.421875 -1.6875 23.328125 -0.78125 C 21.242188 0.113281 18.960938 0.5625 16.484375 0.5625 Z M 16.484375 0.5625 "/></g></g></g><g fill="#ffffff" fill-opacity="1"><g transform="translate(259.03176, 72.390428)"><g><path d="M 3.328125 0 L 3.328125 -41.765625 L 11.96875 -41.765625 L 11.96875 -17.265625 L 22.625 -28.734375 L 32.90625 -28.734375 L 19.921875 -14.84375 C 20.785156 -14.3125 21.5 -13.613281 22.0625 -12.75 L 24.265625 -9.3125 C 25.429688 -7.507812 27.066406 -6.609375 29.171875 -6.609375 C 30.304688 -6.609375 31.378906 -6.890625 32.390625 -7.453125 L 34.25 -1.078125 C 33.195312 -0.472656 32.113281 -0.0390625 31 0.21875 C 29.894531 0.488281 28.722656 0.601562 27.484375 0.5625 C 25.035156 0.53125 23.007812 0.0820312 21.40625 -0.78125 C 19.8125 -1.65625 18.375 -3.125 17.09375 -5.1875 L 14.90625 -8.640625 C 14.375 -9.460938 13.878906 -10.132812 13.421875 -10.65625 C 12.972656 -11.1875 12.488281 -11.601562 11.96875 -11.90625 L 11.96875 0 Z M 3.328125 0 "/></g></g></g><g clip-path="url(#63bd603823)"><g clip-path="url(#703b2a9bc7)"><path fill="#ffffff" d="M 0.621094 15.808594 L 71.964844 15.808594 L 71.964844 87.152344 L 0.621094 87.152344 Z M 0.621094 15.808594 " fill-opacity="1" fill-rule="nonzero"/></g></g><g clip-path="url(#72cc64f5d9)"><path fill="#120a30" d="M 25.617188 30.070312 L 25.617188 44.027344 C 26.007812 43.464844 26.4375 42.933594 26.914062 42.4375 C 27.386719 41.941406 27.898438 41.484375 28.445312 41.070312 C 28.992188 40.65625 29.570312 40.285156 30.175781 39.960938 C 30.78125 39.636719 31.40625 39.363281 32.054688 39.140625 C 32.707031 38.917969 33.367188 38.746094 34.042969 38.625 C 34.71875 38.507812 35.402344 38.441406 36.089844 38.433594 C 36.773438 38.421875 37.457031 38.464844 38.136719 38.566406 C 38.816406 38.664062 39.484375 38.8125 40.140625 39.019531 C 40.796875 39.222656 41.429688 39.476562 42.046875 39.78125 C 42.660156 40.089844 43.246094 40.441406 43.808594 40.839844 C 44.367188 41.238281 44.890625 41.675781 45.378906 42.160156 C 45.867188 42.640625 46.316406 43.15625 46.722656 43.710938 C 47.128906 44.265625 47.492188 44.84375 47.804688 45.457031 C 48.121094 46.066406 48.382812 46.699219 48.597656 47.351562 C 48.8125 48.003906 48.972656 48.667969 49.082031 49.34375 C 49.191406 50.023438 49.246094 50.707031 49.246094 51.390625 L 49.246094 71.402344 L 49.273438 71.382812 C 49.324219 72.058594 49.4375 72.726562 49.613281 73.386719 C 49.789062 74.042969 50.023438 74.679688 50.320312 75.292969 C 50.613281 75.90625 50.960938 76.484375 51.367188 77.03125 C 51.769531 77.582031 52.222656 78.085938 52.71875 78.550781 C 53.21875 79.011719 53.757812 79.425781 54.332031 79.789062 C 54.910156 80.148438 55.511719 80.453125 56.144531 80.703125 C 56.78125 80.953125 57.429688 81.140625 58.097656 81.265625 C 58.769531 81.394531 59.441406 81.457031 60.121094 81.457031 L 60.121094 51.390625 C 60.121094 50.886719 60.105469 50.382812 60.074219 49.878906 C 60.042969 49.375 59.992188 48.871094 59.929688 48.371094 C 59.863281 47.867188 59.785156 47.371094 59.6875 46.875 C 59.59375 46.375 59.480469 45.882812 59.355469 45.394531 C 59.226562 44.90625 59.082031 44.421875 58.925781 43.941406 C 58.769531 43.460938 58.59375 42.988281 58.40625 42.519531 C 58.21875 42.050781 58.015625 41.585938 57.796875 41.128906 C 57.578125 40.675781 57.347656 40.226562 57.101562 39.785156 C 56.855469 39.34375 56.59375 38.910156 56.320312 38.484375 C 56.046875 38.058594 55.761719 37.644531 55.460938 37.238281 C 55.160156 36.832031 54.847656 36.433594 54.523438 36.046875 C 54.195312 35.660156 53.859375 35.285156 53.511719 34.921875 C 53.160156 34.554688 52.800781 34.203125 52.429688 33.859375 C 52.058594 33.515625 51.675781 33.1875 51.28125 32.867188 C 50.890625 32.550781 50.488281 32.246094 50.074219 31.953125 C 49.664062 31.660156 49.242188 31.382812 48.8125 31.117188 C 48.382812 30.851562 47.945312 30.597656 47.496094 30.359375 C 47.050781 30.121094 46.597656 29.898438 46.136719 29.691406 C 45.679688 29.480469 45.210938 29.289062 44.738281 29.109375 C 44.265625 28.929688 43.789062 28.765625 43.308594 28.617188 C 42.824219 28.464844 42.335938 28.332031 41.84375 28.214844 C 41.355469 28.097656 40.859375 27.996094 40.363281 27.90625 C 39.863281 27.820312 39.363281 27.75 38.859375 27.695312 C 38.359375 27.640625 37.855469 27.601562 37.351562 27.578125 C 36.84375 27.554688 36.339844 27.550781 35.835938 27.558594 C 35.328125 27.570312 34.824219 27.59375 34.320312 27.636719 C 33.816406 27.675781 33.316406 27.734375 32.816406 27.808594 C 32.316406 27.878906 31.820312 27.96875 31.324219 28.074219 C 30.828125 28.179688 30.339844 28.300781 29.851562 28.4375 C 29.367188 28.570312 28.882812 28.722656 28.40625 28.890625 C 27.929688 29.058594 27.457031 29.238281 26.992188 29.433594 C 26.527344 29.632812 26.070312 29.84375 25.617188 30.070312 Z M 25.617188 30.070312 " fill-opacity="1" fill-rule="evenodd"/></g><g clip-path="url(#152a76773b)"><path fill="#28d7f6" d="M 12.449219 51.390625 C 12.449219 51.898438 12.464844 52.402344 12.496094 52.90625 C 12.527344 53.410156 12.578125 53.914062 12.640625 54.414062 C 12.707031 54.917969 12.785156 55.414062 12.882812 55.910156 C 12.976562 56.40625 13.089844 56.898438 13.214844 57.390625 C 13.34375 57.878906 13.484375 58.363281 13.644531 58.84375 C 13.800781 59.324219 13.976562 59.796875 14.164062 60.265625 C 14.351562 60.734375 14.554688 61.199219 14.773438 61.652344 C 14.988281 62.109375 15.222656 62.558594 15.46875 63 C 15.714844 63.441406 15.972656 63.875 16.25 64.300781 C 16.523438 64.722656 16.808594 65.140625 17.109375 65.546875 C 17.410156 65.953125 17.722656 66.347656 18.046875 66.734375 C 18.371094 67.121094 18.710938 67.5 19.058594 67.863281 C 19.410156 68.230469 19.769531 68.582031 20.140625 68.925781 C 20.511719 69.265625 20.894531 69.597656 21.289062 69.914062 C 21.679688 70.234375 22.082031 70.539062 22.496094 70.832031 C 22.90625 71.125 23.328125 71.402344 23.757812 71.667969 C 24.1875 71.933594 24.625 72.1875 25.070312 72.421875 C 25.515625 72.660156 25.96875 72.886719 26.429688 73.09375 C 26.890625 73.304688 27.355469 73.496094 27.828125 73.675781 C 28.300781 73.855469 28.78125 74.019531 29.261719 74.167969 C 29.746094 74.316406 30.234375 74.453125 30.722656 74.570312 C 31.214844 74.6875 31.710938 74.789062 32.207031 74.875 C 32.707031 74.964844 33.207031 75.035156 33.707031 75.089844 C 34.210938 75.144531 34.714844 75.183594 35.21875 75.203125 C 35.722656 75.226562 36.230469 75.234375 36.734375 75.226562 C 37.238281 75.214844 37.742188 75.191406 38.246094 75.148438 C 38.75 75.109375 39.253906 75.050781 39.753906 74.976562 C 40.253906 74.902344 40.75 74.816406 41.246094 74.710938 C 41.738281 74.605469 42.230469 74.484375 42.714844 74.347656 C 43.203125 74.210938 43.683594 74.058594 44.160156 73.894531 C 44.640625 73.726562 45.109375 73.546875 45.574219 73.347656 C 46.042969 73.152344 46.5 72.941406 46.953125 72.714844 L 46.953125 58.757812 C 46.5625 59.320312 46.128906 59.851562 45.65625 60.347656 C 45.179688 60.84375 44.671875 61.300781 44.125 61.714844 C 43.578125 62.128906 43 62.5 42.394531 62.824219 C 41.789062 63.148438 41.160156 63.421875 40.511719 63.644531 C 39.863281 63.867188 39.199219 64.039062 38.523438 64.160156 C 37.847656 64.277344 37.167969 64.339844 36.480469 64.351562 C 35.792969 64.363281 35.109375 64.316406 34.429688 64.21875 C 33.75 64.121094 33.085938 63.96875 32.429688 63.765625 C 31.773438 63.5625 31.136719 63.308594 30.523438 63 C 29.90625 62.695312 29.320312 62.34375 28.761719 61.945312 C 28.203125 61.546875 27.679688 61.109375 27.191406 60.625 C 26.699219 60.144531 26.253906 59.625 25.84375 59.074219 C 25.4375 58.519531 25.078125 57.9375 24.761719 57.328125 C 24.449219 56.71875 24.183594 56.085938 23.96875 55.433594 C 23.757812 54.78125 23.59375 54.117188 23.484375 53.4375 C 23.378906 52.761719 23.324219 52.078125 23.324219 51.390625 L 23.324219 31.382812 C 21.652344 32.464844 20.144531 33.734375 18.792969 35.191406 C 17.441406 36.652344 16.289062 38.257812 15.339844 40.003906 C 14.390625 41.75 13.667969 43.589844 13.179688 45.515625 C 12.691406 47.445312 12.445312 49.402344 12.449219 51.390625 Z M 12.449219 51.390625 " fill-opacity="1" fill-rule="evenodd"/></g></svg>