<svg xmlns="http://www.w3.org/2000/svg" xmlns:xlink="http://www.w3.org/1999/xlink" width="254" zoomAndPan="magnify" viewBox="0 0 190.5 42" height="56" preserveAspectRatio="xMidYMid meet" version="1.0"><defs><g/><clipPath id="6e885fa0e4"><path d="M 103 15 L 118.160156 15 L 118.160156 37.371094 L 103 37.371094 Z M 103 15 " clip-rule="nonzero"/></clipPath><clipPath id="4a8b58e617"><path d="M 98.320312 16 L 113 16 L 113 35 L 98.320312 35 Z M 98.320312 16 " clip-rule="nonzero"/></clipPath><clipPath id="05de295cfa"><path d="M 1.972656 0 L 42.996094 0 L 42.996094 41.023438 L 1.972656 41.023438 Z M 1.972656 0 " clip-rule="nonzero"/></clipPath><clipPath id="34159a5cb9"><path d="M 22.484375 0 C 11.15625 0 1.972656 9.183594 1.972656 20.511719 C 1.972656 31.839844 11.15625 41.023438 22.484375 41.023438 C 33.8125 41.023438 42.996094 31.839844 42.996094 20.511719 C 42.996094 9.183594 33.8125 0 22.484375 0 Z M 22.484375 0 " clip-rule="nonzero"/></clipPath><clipPath id="8bdf4caa3b"><path d="M 16 6.042969 L 36.191406 6.042969 L 36.191406 37.804688 L 16 37.804688 Z M 16 6.042969 " clip-rule="nonzero"/></clipPath><clipPath id="f211f9d5d3"><path d="M 8.773438 8 L 29 8 L 29 35 L 8.773438 35 Z M 8.773438 8 " clip-rule="nonzero"/></clipPath></defs><g fill="#130b30" fill-opacity="1"><g transform="translate(59.328439, 32.534363)"><g><path d="M 21.390625 -4.96875 L 22.625 -0.875 C 22.144531 -0.507812 21.53125 -0.21875 20.78125 0 C 20.039062 0.21875 19.28125 0.328125 18.5 0.328125 C 17.09375 0.328125 15.859375 0.0390625 14.796875 -0.53125 C 13.734375 -1.101562 12.859375 -1.941406 12.171875 -3.046875 L 9.40625 -7.46875 C 9.082031 -7.988281 8.765625 -8.347656 8.453125 -8.546875 C 8.140625 -8.753906 7.773438 -8.867188 7.359375 -8.890625 L 7.359375 0 L 2.171875 0 L 2.171875 -23.046875 L 9.734375 -23.046875 C 12.910156 -23.046875 15.296875 -22.40625 16.890625 -21.125 C 18.484375 -19.851562 19.28125 -18.09375 19.28125 -15.84375 C 19.28125 -14.0625 18.734375 -12.609375 17.640625 -11.484375 C 16.546875 -10.359375 15.144531 -9.625 13.4375 -9.28125 C 14.144531 -8.9375 14.769531 -8.363281 15.3125 -7.5625 L 16.421875 -5.875 C 17.109375 -4.832031 18.015625 -4.3125 19.140625 -4.3125 C 19.554688 -4.3125 19.945312 -4.359375 20.3125 -4.453125 C 20.6875 -4.554688 21.046875 -4.726562 21.390625 -4.96875 Z M 9.4375 -18.71875 L 7.359375 -18.71875 L 7.359375 -13.015625 L 9.40625 -13.015625 C 11.03125 -13.015625 12.195312 -13.242188 12.90625 -13.703125 C 13.625 -14.171875 13.984375 -14.90625 13.984375 -15.90625 C 13.984375 -16.894531 13.582031 -17.609375 12.78125 -18.046875 C 11.976562 -18.492188 10.863281 -18.71875 9.4375 -18.71875 Z M 9.4375 -18.71875 "/></g></g></g><g fill="#130b30" fill-opacity="1"><g transform="translate(79.708263, 32.534363)"><g><path d="M 10.0625 0.328125 C 8.21875 0.328125 6.625 -0.0078125 5.28125 -0.6875 C 3.945312 -1.375 2.910156 -2.335938 2.171875 -3.578125 C 1.441406 -4.828125 1.078125 -6.304688 1.078125 -8.015625 C 1.078125 -9.742188 1.445312 -11.269531 2.1875 -12.59375 C 2.9375 -13.914062 3.941406 -14.941406 5.203125 -15.671875 C 6.472656 -16.410156 7.910156 -16.78125 9.515625 -16.78125 C 11.328125 -16.78125 12.804688 -16.367188 13.953125 -15.546875 C 15.097656 -14.722656 15.890625 -13.554688 16.328125 -12.046875 C 16.773438 -10.546875 16.867188 -8.800781 16.609375 -6.8125 L 6.140625 -6.8125 C 6.265625 -5.988281 6.691406 -5.300781 7.421875 -4.75 C 8.160156 -4.195312 9.171875 -3.921875 10.453125 -3.921875 C 11.035156 -3.921875 11.648438 -4.046875 12.296875 -4.296875 C 12.941406 -4.546875 13.492188 -4.921875 13.953125 -5.421875 L 16.71875 -2.5 C 16 -1.632812 15.113281 -0.945312 14.0625 -0.4375 C 13.019531 0.0703125 11.6875 0.328125 10.0625 0.328125 Z M 9.609375 -13.171875 C 8.742188 -13.171875 8.007812 -12.910156 7.40625 -12.390625 C 6.8125 -11.878906 6.421875 -11.15625 6.234375 -10.21875 L 12.421875 -10.21875 C 12.453125 -11.238281 12.210938 -11.984375 11.703125 -12.453125 C 11.191406 -12.929688 10.492188 -13.171875 9.609375 -13.171875 Z M 9.609375 -13.171875 "/></g></g></g><g fill="#130b30" fill-opacity="1"><g transform="translate(96.557323, 32.534363)"><g/></g></g><g fill="#130b30" fill-opacity="1"><g transform="translate(103.826526, 32.534363)"><g/></g></g><g fill="#130b30" fill-opacity="1"><g transform="translate(111.095729, 32.534363)"><g/></g></g><g fill="#130b30" fill-opacity="1"><g transform="translate(118.368659, 32.534363)"><g><path d="M 7.109375 0.328125 C 5.441406 0.328125 4.160156 -0.128906 3.265625 -1.046875 C 2.367188 -1.972656 1.921875 -3.3125 1.921875 -5.0625 L 1.921875 -24.015625 L 6.875 -24.015625 L 6.875 -5.421875 C 6.875 -4.421875 7.34375 -3.921875 8.28125 -3.921875 C 8.769531 -3.921875 9.191406 -4.039062 9.546875 -4.28125 L 10.734375 -0.75 C 10.367188 -0.445312 9.863281 -0.191406 9.21875 0.015625 C 8.570312 0.222656 7.867188 0.328125 7.109375 0.328125 Z M 7.109375 0.328125 "/></g></g></g><g fill="#130b30" fill-opacity="1"><g transform="translate(127.487625, 32.534363)"><g><path d="M 6.875 -16.515625 L 6.875 0 L 1.921875 0 L 1.921875 -16.515625 Z M 4.375 -18.46875 C 3.425781 -18.46875 2.671875 -18.757812 2.109375 -19.34375 C 1.546875 -19.925781 1.265625 -20.617188 1.265625 -21.421875 C 1.265625 -22.222656 1.539062 -22.914062 2.09375 -23.5 C 2.644531 -24.082031 3.40625 -24.375 4.375 -24.375 C 5.332031 -24.375 6.09375 -24.082031 6.65625 -23.5 C 7.21875 -22.914062 7.5 -22.222656 7.5 -21.421875 C 7.5 -20.617188 7.21875 -19.925781 6.65625 -19.34375 C 6.09375 -18.757812 5.332031 -18.46875 4.375 -18.46875 Z M 4.375 -18.46875 "/></g></g></g><g fill="#130b30" fill-opacity="1"><g transform="translate(135.34096, 32.534363)"><g><path d="M 9.46875 0.328125 C 7.757812 0.328125 6.273438 0 5.015625 -0.65625 C 3.765625 -1.320312 2.796875 -2.269531 2.109375 -3.5 C 1.421875 -4.738281 1.078125 -6.210938 1.078125 -7.921875 C 1.078125 -9.671875 1.445312 -11.207031 2.1875 -12.53125 C 2.9375 -13.863281 3.96875 -14.90625 5.28125 -15.65625 C 6.601562 -16.40625 8.140625 -16.78125 9.890625 -16.78125 C 11.328125 -16.78125 12.59375 -16.5 13.6875 -15.9375 C 14.789062 -15.375 15.679688 -14.5 16.359375 -13.3125 L 12.84375 -10.640625 C 12.5 -11.265625 12.09375 -11.71875 11.625 -12 C 11.164062 -12.28125 10.585938 -12.421875 9.890625 -12.421875 C 8.835938 -12.421875 7.960938 -12.015625 7.265625 -11.203125 C 6.578125 -10.398438 6.234375 -9.335938 6.234375 -8.015625 C 6.234375 -6.734375 6.539062 -5.75 7.15625 -5.0625 C 7.769531 -4.375 8.660156 -4.03125 9.828125 -4.03125 C 10.460938 -4.03125 11.039062 -4.175781 11.5625 -4.46875 C 12.09375 -4.757812 12.546875 -5.21875 12.921875 -5.84375 L 16.328125 -3.109375 C 15.585938 -1.859375 14.617188 -0.972656 13.421875 -0.453125 C 12.222656 0.0664062 10.90625 0.328125 9.46875 0.328125 Z M 9.46875 0.328125 "/></g></g></g><g fill="#130b30" fill-opacity="1"><g transform="translate(150.56091, 32.534363)"><g><path d="M 1.921875 0 L 1.921875 -24.015625 L 6.875 -24.015625 L 6.875 -9.9375 L 13.015625 -16.515625 L 18.921875 -16.515625 L 11.453125 -8.53125 C 11.953125 -8.226562 12.363281 -7.828125 12.6875 -7.328125 L 13.953125 -5.359375 C 14.617188 -4.316406 15.5625 -3.796875 16.78125 -3.796875 C 17.425781 -3.796875 18.039062 -3.957031 18.625 -4.28125 L 19.703125 -0.609375 C 19.097656 -0.265625 18.472656 -0.0195312 17.828125 0.125 C 17.191406 0.28125 16.515625 0.347656 15.796875 0.328125 C 14.390625 0.304688 13.226562 0.046875 12.3125 -0.453125 C 11.394531 -0.953125 10.566406 -1.796875 9.828125 -2.984375 L 8.5625 -4.96875 C 8.257812 -5.4375 7.976562 -5.820312 7.71875 -6.125 C 7.457031 -6.4375 7.175781 -6.675781 6.875 -6.84375 L 6.875 0 Z M 1.921875 0 "/></g></g></g><g clip-path="url(#6e885fa0e4)"><path fill="#130b30" d="M 103.800781 16.046875 L 103.800781 21.851562 C 104.125 21.378906 104.519531 20.96875 104.976562 20.621094 C 105.433594 20.273438 105.933594 20.007812 106.476562 19.820312 C 107.019531 19.632812 107.582031 19.535156 108.15625 19.523438 C 108.730469 19.515625 109.292969 19.597656 109.839844 19.769531 C 110.390625 19.941406 110.898438 20.191406 111.367188 20.527344 C 111.835938 20.859375 112.238281 21.257812 112.578125 21.722656 C 112.921875 22.183594 113.179688 22.6875 113.359375 23.234375 C 113.539062 23.78125 113.628906 24.339844 113.628906 24.917969 L 113.628906 33.242188 L 113.640625 33.234375 C 113.683594 33.800781 113.828125 34.34375 114.074219 34.859375 C 114.324219 35.375 114.65625 35.824219 115.074219 36.214844 C 115.492188 36.601562 115.96875 36.902344 116.5 37.109375 C 117.03125 37.320312 117.582031 37.425781 118.15625 37.425781 L 118.15625 24.917969 C 118.152344 24.496094 118.128906 24.078125 118.074219 23.660156 C 118.019531 23.242188 117.941406 22.828125 117.835938 22.421875 C 117.726562 22.015625 117.597656 21.617188 117.441406 21.226562 C 117.285156 20.835938 117.101562 20.453125 116.898438 20.085938 C 116.691406 19.71875 116.464844 19.367188 116.214844 19.027344 C 115.964844 18.691406 115.695312 18.367188 115.402344 18.0625 C 115.113281 17.757812 114.804688 17.476562 114.476562 17.210938 C 114.148438 16.945312 113.804688 16.703125 113.449219 16.480469 C 113.089844 16.261719 112.71875 16.0625 112.335938 15.886719 C 111.953125 15.714844 111.558594 15.566406 111.160156 15.441406 C 110.757812 15.316406 110.347656 15.21875 109.933594 15.148438 C 109.519531 15.074219 109.101562 15.027344 108.679688 15.011719 C 108.257812 14.992188 107.839844 15 107.421875 15.03125 C 107 15.066406 106.585938 15.128906 106.171875 15.214844 C 105.761719 15.304688 105.355469 15.417969 104.960938 15.554688 C 104.5625 15.695312 104.175781 15.859375 103.800781 16.046875 Z M 103.800781 16.046875 " fill-opacity="1" fill-rule="evenodd"/></g><g clip-path="url(#4a8b58e617)"><path fill="#130b30" d="M 98.320312 24.917969 C 98.320312 25.335938 98.347656 25.757812 98.402344 26.175781 C 98.453125 26.589844 98.535156 27.003906 98.640625 27.410156 C 98.746094 27.820312 98.878906 28.21875 99.035156 28.609375 C 99.191406 29 99.371094 29.378906 99.578125 29.746094 C 99.78125 30.113281 100.007812 30.464844 100.257812 30.804688 C 100.507812 31.144531 100.78125 31.464844 101.070312 31.769531 C 101.363281 32.074219 101.671875 32.359375 101.996094 32.621094 C 102.324219 32.886719 102.667969 33.128906 103.027344 33.351562 C 103.382812 33.574219 103.753906 33.769531 104.136719 33.945312 C 104.519531 34.121094 104.914062 34.269531 105.316406 34.390625 C 105.71875 34.515625 106.125 34.613281 106.539062 34.6875 C 106.957031 34.757812 107.375 34.804688 107.792969 34.824219 C 108.214844 34.84375 108.632812 34.835938 109.054688 34.800781 C 109.472656 34.765625 109.890625 34.703125 110.300781 34.617188 C 110.710938 34.53125 111.117188 34.417969 111.515625 34.277344 C 111.910156 34.140625 112.296875 33.976562 112.675781 33.789062 L 112.675781 27.980469 C 112.347656 28.453125 111.957031 28.863281 111.496094 29.210938 C 111.039062 29.558594 110.539062 29.828125 109.996094 30.015625 C 109.453125 30.203125 108.894531 30.300781 108.320312 30.308594 C 107.742188 30.316406 107.183594 30.234375 106.632812 30.0625 C 106.085938 29.894531 105.574219 29.640625 105.105469 29.308594 C 104.640625 28.972656 104.234375 28.574219 103.894531 28.113281 C 103.554688 27.648438 103.292969 27.144531 103.113281 26.597656 C 102.933594 26.050781 102.84375 25.492188 102.84375 24.917969 L 102.84375 16.59375 C 102.148438 17.042969 101.523438 17.570312 100.960938 18.175781 C 100.398438 18.785156 99.917969 19.453125 99.523438 20.179688 C 99.128906 20.90625 98.828125 21.671875 98.625 22.472656 C 98.421875 23.273438 98.320312 24.089844 98.320312 24.917969 Z M 98.320312 24.917969 " fill-opacity="1" fill-rule="evenodd"/></g><g clip-path="url(#05de295cfa)"><g clip-path="url(#34159a5cb9)"><path fill="#120a30" d="M 1.972656 0 L 42.996094 0 L 42.996094 41.023438 L 1.972656 41.023438 Z M 1.972656 0 " fill-opacity="1" fill-rule="nonzero"/></g></g><g clip-path="url(#8bdf4caa3b)"><path fill="#ffffff" d="M 16.34375 8.199219 L 16.34375 16.226562 C 16.796875 15.570312 17.339844 15.003906 17.972656 14.523438 C 18.605469 14.042969 19.296875 13.675781 20.046875 13.414062 C 20.796875 13.15625 21.570312 13.019531 22.367188 13.007812 C 23.160156 12.996094 23.9375 13.109375 24.695312 13.34375 C 25.453125 13.582031 26.15625 13.929688 26.804688 14.390625 C 27.449219 14.851562 28.011719 15.402344 28.480469 16.042969 C 28.953125 16.683594 29.3125 17.378906 29.558594 18.136719 C 29.808594 18.890625 29.929688 19.664062 29.929688 20.460938 L 29.929688 31.964844 L 29.949219 31.953125 C 29.976562 32.34375 30.042969 32.730469 30.140625 33.105469 C 30.242188 33.484375 30.378906 33.851562 30.546875 34.203125 C 30.71875 34.554688 30.917969 34.890625 31.152344 35.203125 C 31.382812 35.519531 31.640625 35.808594 31.929688 36.074219 C 32.214844 36.34375 32.523438 36.578125 32.855469 36.789062 C 33.1875 36.996094 33.535156 37.171875 33.898438 37.316406 C 34.261719 37.457031 34.636719 37.566406 35.023438 37.636719 C 35.40625 37.710938 35.792969 37.746094 36.1875 37.746094 L 36.1875 20.460938 C 36.1875 19.878906 36.148438 19.300781 36.074219 18.722656 C 36 18.144531 35.890625 17.574219 35.742188 17.011719 C 35.597656 16.449219 35.414062 15.898438 35.199219 15.359375 C 34.980469 14.816406 34.730469 14.292969 34.449219 13.785156 C 34.164062 13.277344 33.851562 12.789062 33.503906 12.320312 C 33.160156 11.851562 32.785156 11.410156 32.382812 10.988281 C 31.980469 10.566406 31.554688 10.175781 31.101562 9.808594 C 30.648438 9.441406 30.175781 9.105469 29.679688 8.800781 C 29.1875 8.496094 28.675781 8.222656 28.144531 7.980469 C 27.613281 7.742188 27.070312 7.535156 26.515625 7.363281 C 25.960938 7.191406 25.394531 7.054688 24.824219 6.957031 C 24.25 6.855469 23.671875 6.792969 23.089844 6.765625 C 22.511719 6.742188 21.929688 6.75 21.347656 6.800781 C 20.769531 6.847656 20.195312 6.929688 19.625 7.050781 C 19.058594 7.171875 18.496094 7.328125 17.949219 7.519531 C 17.398438 7.714844 16.863281 7.9375 16.34375 8.199219 Z M 16.34375 8.199219 " fill-opacity="1" fill-rule="evenodd"/></g><g clip-path="url(#f211f9d5d3)"><path fill="#2ad7f6" d="M 8.773438 20.460938 C 8.773438 21.042969 8.808594 21.621094 8.882812 22.199219 C 8.957031 22.773438 9.066406 23.34375 9.214844 23.910156 C 9.359375 24.472656 9.542969 25.023438 9.757812 25.5625 C 9.976562 26.101562 10.226562 26.625 10.507812 27.132812 C 10.792969 27.644531 11.105469 28.128906 11.453125 28.597656 C 11.796875 29.066406 12.171875 29.511719 12.574219 29.929688 C 12.976562 30.351562 13.402344 30.746094 13.855469 31.113281 C 14.308594 31.476562 14.78125 31.8125 15.277344 32.121094 C 15.769531 32.425781 16.28125 32.699219 16.8125 32.9375 C 17.34375 33.179688 17.882812 33.386719 18.441406 33.558594 C 18.996094 33.730469 19.5625 33.863281 20.132812 33.964844 C 20.707031 34.0625 21.285156 34.125 21.867188 34.152344 C 22.445312 34.179688 23.027344 34.167969 23.605469 34.121094 C 24.1875 34.074219 24.761719 33.988281 25.332031 33.867188 C 25.898438 33.746094 26.457031 33.589844 27.007812 33.398438 C 27.558594 33.207031 28.09375 32.980469 28.613281 32.722656 L 28.613281 24.695312 C 28.160156 25.347656 27.617188 25.914062 26.984375 26.394531 C 26.351562 26.875 25.660156 27.246094 24.910156 27.503906 C 24.160156 27.765625 23.386719 27.898438 22.589844 27.910156 C 21.796875 27.925781 21.019531 27.8125 20.261719 27.574219 C 19.503906 27.339844 18.800781 26.988281 18.152344 26.527344 C 17.503906 26.066406 16.945312 25.515625 16.476562 24.875 C 16.003906 24.238281 15.644531 23.539062 15.398438 22.785156 C 15.148438 22.03125 15.027344 21.253906 15.027344 20.460938 L 15.027344 8.953125 C 14.066406 9.574219 13.195312 10.304688 12.417969 11.144531 C 11.640625 11.984375 10.980469 12.90625 10.433594 13.910156 C 9.886719 14.917969 9.472656 15.972656 9.191406 17.082031 C 8.910156 18.191406 8.769531 19.316406 8.773438 20.460938 Z M 8.773438 20.460938 " fill-opacity="1" fill-rule="evenodd"/></g></svg>